<mxfile host="app.diagrams.net" modified="2023-03-30T11:52:33.999Z" agent="Mozilla/5.0 (Windows NT 10.0; Win64; x64) AppleWebKit/537.36 (KHTML, like Gecko) Chrome/111.0.0.0 Safari/537.36" etag="5hfDlUYE16vpuceAtzBi" version="21.1.2" type="github">
  <diagram name="Page-1" id="b520641d-4fe3-3701-9064-5fc419738815">
    <mxGraphModel dx="5374" dy="796" grid="1" gridSize="10" guides="1" tooltips="1" connect="1" arrows="1" fold="1" page="1" pageScale="1" pageWidth="1100" pageHeight="850" background="none" math="0" shadow="0">
      <root>
        <mxCell id="0" />
        <mxCell id="1" parent="0" />
        <mxCell id="PACxMlugmtT-tu7Vrz_O-5" value="Update dataset" style="swimlane;html=1;fontStyle=0;childLayout=stackLayout;horizontal=1;startSize=26;fillColor=#e0e0e0;horizontalStack=0;resizeParent=1;resizeLast=0;collapsible=1;marginBottom=0;swimlaneFillColor=#ffffff;align=center;rounded=1;shadow=0;comic=0;labelBackgroundColor=none;strokeWidth=1;fontFamily=Verdana;fontSize=12" vertex="1" parent="1">
          <mxGeometry x="-2050" y="230" width="160" height="170" as="geometry">
            <mxRectangle x="-2050" y="230" width="130" height="30" as="alternateBounds" />
          </mxGeometry>
        </mxCell>
        <mxCell id="PACxMlugmtT-tu7Vrz_O-6" value="ETL hierarchy" style="text;html=1;strokeColor=none;fillColor=none;spacingLeft=4;spacingRight=4;whiteSpace=wrap;overflow=hidden;rotatable=0;points=[[0,0.5],[1,0.5]];portConstraint=eastwest;" vertex="1" parent="PACxMlugmtT-tu7Vrz_O-5">
          <mxGeometry y="26" width="160" height="26" as="geometry" />
        </mxCell>
        <mxCell id="PACxMlugmtT-tu7Vrz_O-7" value="ETL assets" style="text;html=1;strokeColor=none;fillColor=none;spacingLeft=4;spacingRight=4;whiteSpace=wrap;overflow=hidden;rotatable=0;points=[[0,0.5],[1,0.5]];portConstraint=eastwest;" vertex="1" parent="PACxMlugmtT-tu7Vrz_O-5">
          <mxGeometry y="52" width="160" height="26" as="geometry" />
        </mxCell>
        <mxCell id="PACxMlugmtT-tu7Vrz_O-8" value="ETL connections" style="text;html=1;strokeColor=none;fillColor=none;spacingLeft=4;spacingRight=4;whiteSpace=wrap;overflow=hidden;rotatable=0;points=[[0,0.5],[1,0.5]];portConstraint=eastwest;" vertex="1" parent="PACxMlugmtT-tu7Vrz_O-5">
          <mxGeometry y="78" width="160" height="26" as="geometry" />
        </mxCell>
        <mxCell id="PACxMlugmtT-tu7Vrz_O-98" value="ETL measurements" style="text;html=1;strokeColor=none;fillColor=none;spacingLeft=4;spacingRight=4;whiteSpace=wrap;overflow=hidden;rotatable=0;points=[[0,0.5],[1,0.5]];portConstraint=eastwest;" vertex="1" parent="PACxMlugmtT-tu7Vrz_O-5">
          <mxGeometry y="104" width="160" height="26" as="geometry" />
        </mxCell>
        <mxCell id="PACxMlugmtT-tu7Vrz_O-100" value="ETL external&amp;nbsp;" style="text;html=1;strokeColor=none;fillColor=none;spacingLeft=4;spacingRight=4;whiteSpace=wrap;overflow=hidden;rotatable=0;points=[[0,0.5],[1,0.5]];portConstraint=eastwest;" vertex="1" parent="PACxMlugmtT-tu7Vrz_O-5">
          <mxGeometry y="130" width="160" height="30" as="geometry" />
        </mxCell>
        <mxCell id="PACxMlugmtT-tu7Vrz_O-108" value="csv" style="edgeStyle=orthogonalEdgeStyle;rounded=0;orthogonalLoop=1;jettySize=auto;html=1;exitX=0.5;exitY=1;exitDx=0;exitDy=0;entryX=0.5;entryY=0;entryDx=0;entryDy=0;" edge="1" parent="1" source="PACxMlugmtT-tu7Vrz_O-19" target="PACxMlugmtT-tu7Vrz_O-5">
          <mxGeometry relative="1" as="geometry" />
        </mxCell>
        <mxCell id="PACxMlugmtT-tu7Vrz_O-19" value="Create scenario" style="swimlane;html=1;fontStyle=0;childLayout=stackLayout;horizontal=1;startSize=26;fillColor=#e0e0e0;horizontalStack=0;resizeParent=1;resizeLast=0;collapsible=1;marginBottom=0;swimlaneFillColor=#ffffff;align=center;rounded=1;shadow=0;comic=0;labelBackgroundColor=none;strokeWidth=1;fontFamily=Verdana;fontSize=12" vertex="1" parent="1">
          <mxGeometry x="-2050" y="80" width="160" height="70" as="geometry">
            <mxRectangle x="-2050" y="80" width="130" height="30" as="alternateBounds" />
          </mxGeometry>
        </mxCell>
        <mxCell id="PACxMlugmtT-tu7Vrz_O-20" value="Transform scenario input" style="text;html=1;strokeColor=none;fillColor=none;spacingLeft=4;spacingRight=4;whiteSpace=wrap;overflow=hidden;rotatable=0;points=[[0,0.5],[1,0.5]];portConstraint=eastwest;" vertex="1" parent="PACxMlugmtT-tu7Vrz_O-19">
          <mxGeometry y="26" width="160" height="26" as="geometry" />
        </mxCell>
        <mxCell id="PACxMlugmtT-tu7Vrz_O-87" value="R" style="edgeStyle=orthogonalEdgeStyle;rounded=0;orthogonalLoop=1;jettySize=auto;html=1;exitX=0.5;exitY=1;exitDx=0;exitDy=0;entryX=0.5;entryY=0;entryDx=0;entryDy=0;" edge="1" parent="1" source="PACxMlugmtT-tu7Vrz_O-35" target="PACxMlugmtT-tu7Vrz_O-68">
          <mxGeometry relative="1" as="geometry" />
        </mxCell>
        <mxCell id="PACxMlugmtT-tu7Vrz_O-35" value="Create experiment" style="swimlane;html=1;fontStyle=0;childLayout=stackLayout;horizontal=1;startSize=26;fillColor=#e0e0e0;horizontalStack=0;resizeParent=1;resizeLast=0;collapsible=1;marginBottom=0;swimlaneFillColor=#ffffff;align=center;rounded=1;shadow=0;comic=0;labelBackgroundColor=none;strokeWidth=1;fontFamily=Verdana;fontSize=12" vertex="1" parent="1">
          <mxGeometry x="-1790" y="80" width="160" height="110" as="geometry" />
        </mxCell>
        <mxCell id="PACxMlugmtT-tu7Vrz_O-37" value="Add loadflow parameters" style="text;html=1;strokeColor=none;fillColor=none;spacingLeft=4;spacingRight=4;whiteSpace=wrap;overflow=hidden;rotatable=0;points=[[0,0.5],[1,0.5]];portConstraint=eastwest;" vertex="1" parent="PACxMlugmtT-tu7Vrz_O-35">
          <mxGeometry y="26" width="160" height="26" as="geometry" />
        </mxCell>
        <mxCell id="PACxMlugmtT-tu7Vrz_O-39" value="Add techdist parameters" style="text;html=1;strokeColor=none;fillColor=none;spacingLeft=4;spacingRight=4;whiteSpace=wrap;overflow=hidden;rotatable=0;points=[[0,0.5],[1,0.5]];portConstraint=eastwest;" vertex="1" parent="PACxMlugmtT-tu7Vrz_O-35">
          <mxGeometry y="52" width="160" height="26" as="geometry" />
        </mxCell>
        <mxCell id="PACxMlugmtT-tu7Vrz_O-107" value="Add scenario" style="text;html=1;strokeColor=none;fillColor=none;spacingLeft=4;spacingRight=4;whiteSpace=wrap;overflow=hidden;rotatable=0;points=[[0,0.5],[1,0.5]];portConstraint=eastwest;" vertex="1" parent="PACxMlugmtT-tu7Vrz_O-35">
          <mxGeometry y="78" width="160" height="26" as="geometry" />
        </mxCell>
        <mxCell id="PACxMlugmtT-tu7Vrz_O-114" style="edgeStyle=orthogonalEdgeStyle;rounded=0;orthogonalLoop=1;jettySize=auto;html=1;exitX=0.5;exitY=0;exitDx=0;exitDy=0;exitPerimeter=0;entryX=0;entryY=0.5;entryDx=0;entryDy=0;" edge="1" parent="1" source="PACxMlugmtT-tu7Vrz_O-41" target="PACxMlugmtT-tu7Vrz_O-100">
          <mxGeometry relative="1" as="geometry" />
        </mxCell>
        <mxCell id="PACxMlugmtT-tu7Vrz_O-41" value="BAG" style="shape=cylinder3;whiteSpace=wrap;html=1;boundedLbl=1;backgroundOutline=1;size=15;" vertex="1" parent="1">
          <mxGeometry x="-2000" y="437.5" width="60" height="80" as="geometry" />
        </mxCell>
        <mxCell id="PACxMlugmtT-tu7Vrz_O-117" style="edgeStyle=orthogonalEdgeStyle;rounded=0;orthogonalLoop=1;jettySize=auto;html=1;exitX=0.5;exitY=0;exitDx=0;exitDy=0;exitPerimeter=0;entryX=0;entryY=0.5;entryDx=0;entryDy=0;" edge="1" parent="1" source="PACxMlugmtT-tu7Vrz_O-42" target="PACxMlugmtT-tu7Vrz_O-100">
          <mxGeometry relative="1" as="geometry" />
        </mxCell>
        <mxCell id="PACxMlugmtT-tu7Vrz_O-42" value="CBS" style="shape=cylinder3;whiteSpace=wrap;html=1;boundedLbl=1;backgroundOutline=1;size=15;" vertex="1" parent="1">
          <mxGeometry x="-1930" y="437.5" width="60" height="80" as="geometry" />
        </mxCell>
        <mxCell id="PACxMlugmtT-tu7Vrz_O-99" style="edgeStyle=orthogonalEdgeStyle;rounded=0;orthogonalLoop=1;jettySize=auto;html=1;exitX=1;exitY=0.5;exitDx=0;exitDy=0;exitPerimeter=0;entryX=0;entryY=0.5;entryDx=0;entryDy=0;" edge="1" parent="1" source="PACxMlugmtT-tu7Vrz_O-58" target="PACxMlugmtT-tu7Vrz_O-98">
          <mxGeometry relative="1" as="geometry" />
        </mxCell>
        <mxCell id="PACxMlugmtT-tu7Vrz_O-58" value="Datalake" style="shape=cylinder3;whiteSpace=wrap;html=1;boundedLbl=1;backgroundOutline=1;size=15;" vertex="1" parent="1">
          <mxGeometry x="-2170" y="330" width="60" height="80" as="geometry" />
        </mxCell>
        <mxCell id="PACxMlugmtT-tu7Vrz_O-116" style="edgeStyle=orthogonalEdgeStyle;rounded=0;orthogonalLoop=1;jettySize=auto;html=1;exitX=0.5;exitY=0;exitDx=0;exitDy=0;exitPerimeter=0;entryX=0;entryY=0.5;entryDx=0;entryDy=0;" edge="1" parent="1" source="PACxMlugmtT-tu7Vrz_O-66" target="PACxMlugmtT-tu7Vrz_O-100">
          <mxGeometry relative="1" as="geometry" />
        </mxCell>
        <mxCell id="PACxMlugmtT-tu7Vrz_O-66" value="Profiles" style="shape=cylinder3;whiteSpace=wrap;html=1;boundedLbl=1;backgroundOutline=1;size=15;" vertex="1" parent="1">
          <mxGeometry x="-2070" y="437.5" width="60" height="80" as="geometry" />
        </mxCell>
        <mxCell id="PACxMlugmtT-tu7Vrz_O-104" value="csv" style="edgeStyle=orthogonalEdgeStyle;rounded=0;orthogonalLoop=1;jettySize=auto;html=1;exitX=1;exitY=0.5;exitDx=0;exitDy=0;exitPerimeter=0;entryX=0.011;entryY=0.846;entryDx=0;entryDy=0;entryPerimeter=0;" edge="1" parent="1" source="PACxMlugmtT-tu7Vrz_O-67" target="PACxMlugmtT-tu7Vrz_O-20">
          <mxGeometry relative="1" as="geometry">
            <mxPoint x="-2050" y="140" as="targetPoint" />
          </mxGeometry>
        </mxCell>
        <mxCell id="PACxMlugmtT-tu7Vrz_O-67" value="MI" style="shape=cylinder3;whiteSpace=wrap;html=1;boundedLbl=1;backgroundOutline=1;size=15;" vertex="1" parent="1">
          <mxGeometry x="-2170" y="87" width="60" height="80" as="geometry" />
        </mxCell>
        <mxCell id="PACxMlugmtT-tu7Vrz_O-84" value="rds" style="edgeStyle=orthogonalEdgeStyle;rounded=0;orthogonalLoop=1;jettySize=auto;html=1;exitX=0.5;exitY=1;exitDx=0;exitDy=0;" edge="1" parent="1" source="PACxMlugmtT-tu7Vrz_O-68" target="PACxMlugmtT-tu7Vrz_O-83">
          <mxGeometry x="0.0027" relative="1" as="geometry">
            <Array as="points">
              <mxPoint x="-1710" y="400" />
              <mxPoint x="-1580" y="400" />
            </Array>
            <mxPoint as="offset" />
          </mxGeometry>
        </mxCell>
        <mxCell id="PACxMlugmtT-tu7Vrz_O-68" value="Technology distribution" style="swimlane;html=1;fontStyle=0;childLayout=stackLayout;horizontal=1;startSize=26;fillColor=#e0e0e0;horizontalStack=0;resizeParent=1;resizeLast=0;collapsible=1;marginBottom=0;swimlaneFillColor=#ffffff;align=center;rounded=1;shadow=0;comic=0;labelBackgroundColor=none;strokeWidth=1;fontFamily=Verdana;fontSize=12;enumerate=0;" vertex="1" parent="1">
          <mxGeometry x="-1790" y="230" width="160" height="120" as="geometry">
            <mxRectangle x="-1790" y="230" width="180" height="30" as="alternateBounds" />
          </mxGeometry>
        </mxCell>
        <mxCell id="PACxMlugmtT-tu7Vrz_O-69" value="Apply technology adoption models" style="text;html=1;strokeColor=none;fillColor=none;spacingLeft=4;spacingRight=4;whiteSpace=wrap;overflow=hidden;rotatable=0;points=[[0,0.5],[1,0.5]];portConstraint=eastwest;" vertex="1" parent="PACxMlugmtT-tu7Vrz_O-68">
          <mxGeometry y="26" width="160" height="44" as="geometry" />
        </mxCell>
        <mxCell id="PACxMlugmtT-tu7Vrz_O-97" value="Apply network adjustment logic" style="text;html=1;strokeColor=none;fillColor=none;spacingLeft=4;spacingRight=4;whiteSpace=wrap;overflow=hidden;rotatable=0;points=[[0,0.5],[1,0.5]];portConstraint=eastwest;" vertex="1" parent="PACxMlugmtT-tu7Vrz_O-68">
          <mxGeometry y="70" width="160" height="44" as="geometry" />
        </mxCell>
        <mxCell id="PACxMlugmtT-tu7Vrz_O-85" value="rds" style="edgeStyle=orthogonalEdgeStyle;rounded=0;orthogonalLoop=1;jettySize=auto;html=1;exitX=0.5;exitY=1;exitDx=0;exitDy=0;entryX=0.5;entryY=0;entryDx=0;entryDy=0;entryPerimeter=0;" edge="1" parent="1" source="PACxMlugmtT-tu7Vrz_O-72" target="PACxMlugmtT-tu7Vrz_O-83">
          <mxGeometry relative="1" as="geometry">
            <Array as="points">
              <mxPoint x="-1460" y="400" />
              <mxPoint x="-1580" y="400" />
            </Array>
          </mxGeometry>
        </mxCell>
        <mxCell id="PACxMlugmtT-tu7Vrz_O-72" value="Loadflow" style="swimlane;html=1;fontStyle=0;childLayout=stackLayout;horizontal=1;startSize=26;fillColor=#e0e0e0;horizontalStack=0;resizeParent=1;resizeLast=0;collapsible=1;marginBottom=0;swimlaneFillColor=#ffffff;align=center;rounded=1;shadow=0;comic=0;labelBackgroundColor=none;strokeWidth=1;fontFamily=Verdana;fontSize=12" vertex="1" parent="1">
          <mxGeometry x="-1540" y="230" width="160" height="110" as="geometry">
            <mxRectangle x="-1540" y="230" width="90" height="30" as="alternateBounds" />
          </mxGeometry>
        </mxCell>
        <mxCell id="PACxMlugmtT-tu7Vrz_O-73" value="Run network calculations" style="text;html=1;strokeColor=none;fillColor=none;spacingLeft=4;spacingRight=4;whiteSpace=wrap;overflow=hidden;rotatable=0;points=[[0,0.5],[1,0.5]];portConstraint=eastwest;" vertex="1" parent="PACxMlugmtT-tu7Vrz_O-72">
          <mxGeometry y="26" width="160" height="26" as="geometry" />
        </mxCell>
        <mxCell id="PACxMlugmtT-tu7Vrz_O-76" value="Reporting" style="swimlane;html=1;fontStyle=0;childLayout=stackLayout;horizontal=1;startSize=26;fillColor=#e0e0e0;horizontalStack=0;resizeParent=1;resizeLast=0;collapsible=1;marginBottom=0;swimlaneFillColor=#ffffff;align=center;rounded=1;shadow=0;comic=0;labelBackgroundColor=none;strokeWidth=1;fontFamily=Verdana;fontSize=12" vertex="1" parent="1">
          <mxGeometry x="-1460" y="460" width="160" height="110" as="geometry">
            <mxRectangle x="-1430" y="390" width="100" height="30" as="alternateBounds" />
          </mxGeometry>
        </mxCell>
        <mxCell id="PACxMlugmtT-tu7Vrz_O-77" value="PowerBI dashboard" style="text;html=1;strokeColor=none;fillColor=none;spacingLeft=4;spacingRight=4;whiteSpace=wrap;overflow=hidden;rotatable=0;points=[[0,0.5],[1,0.5]];portConstraint=eastwest;" vertex="1" parent="PACxMlugmtT-tu7Vrz_O-76">
          <mxGeometry y="26" width="160" height="26" as="geometry" />
        </mxCell>
        <mxCell id="PACxMlugmtT-tu7Vrz_O-78" value="Excel reports" style="text;html=1;strokeColor=none;fillColor=none;spacingLeft=4;spacingRight=4;whiteSpace=wrap;overflow=hidden;rotatable=0;points=[[0,0.5],[1,0.5]];portConstraint=eastwest;" vertex="1" parent="PACxMlugmtT-tu7Vrz_O-76">
          <mxGeometry y="52" width="160" height="26" as="geometry" />
        </mxCell>
        <mxCell id="PACxMlugmtT-tu7Vrz_O-79" value="Markdown reports" style="text;html=1;strokeColor=none;fillColor=none;spacingLeft=4;spacingRight=4;whiteSpace=wrap;overflow=hidden;rotatable=0;points=[[0,0.5],[1,0.5]];portConstraint=eastwest;" vertex="1" parent="PACxMlugmtT-tu7Vrz_O-76">
          <mxGeometry y="78" width="160" height="26" as="geometry" />
        </mxCell>
        <mxCell id="PACxMlugmtT-tu7Vrz_O-80" value="rds" style="edgeStyle=orthogonalEdgeStyle;rounded=0;orthogonalLoop=1;jettySize=auto;html=1;exitX=1;exitY=0.5;exitDx=0;exitDy=0;entryX=0;entryY=0.5;entryDx=0;entryDy=0;" edge="1" parent="1" source="PACxMlugmtT-tu7Vrz_O-7">
          <mxGeometry relative="1" as="geometry">
            <mxPoint x="-1790" y="295" as="targetPoint" />
          </mxGeometry>
        </mxCell>
        <mxCell id="PACxMlugmtT-tu7Vrz_O-81" value="rds" style="edgeStyle=orthogonalEdgeStyle;rounded=0;orthogonalLoop=1;jettySize=auto;html=1;exitX=1;exitY=0.5;exitDx=0;exitDy=0;entryX=0;entryY=0.5;entryDx=0;entryDy=0;" edge="1" parent="1">
          <mxGeometry relative="1" as="geometry">
            <mxPoint x="-1630" y="295" as="sourcePoint" />
            <mxPoint x="-1540" y="295" as="targetPoint" />
          </mxGeometry>
        </mxCell>
        <mxCell id="PACxMlugmtT-tu7Vrz_O-86" value="csv" style="edgeStyle=orthogonalEdgeStyle;rounded=0;orthogonalLoop=1;jettySize=auto;html=1;exitX=1;exitY=0.5;exitDx=0;exitDy=0;exitPerimeter=0;entryX=-0.018;entryY=0.379;entryDx=0;entryDy=0;entryPerimeter=0;" edge="1" parent="1" source="PACxMlugmtT-tu7Vrz_O-83" target="PACxMlugmtT-tu7Vrz_O-78">
          <mxGeometry relative="1" as="geometry" />
        </mxCell>
        <mxCell id="PACxMlugmtT-tu7Vrz_O-83" value="results" style="shape=cylinder3;whiteSpace=wrap;html=1;boundedLbl=1;backgroundOutline=1;size=15;" vertex="1" parent="1">
          <mxGeometry x="-1610" y="445" width="60" height="80" as="geometry" />
        </mxCell>
        <mxCell id="PACxMlugmtT-tu7Vrz_O-90" style="edgeStyle=orthogonalEdgeStyle;rounded=0;orthogonalLoop=1;jettySize=auto;html=1;exitX=1;exitY=0.5;exitDx=0;exitDy=0;exitPerimeter=0;entryX=0;entryY=0.5;entryDx=0;entryDy=0;" edge="1" parent="1" source="PACxMlugmtT-tu7Vrz_O-88" target="PACxMlugmtT-tu7Vrz_O-6">
          <mxGeometry relative="1" as="geometry" />
        </mxCell>
        <mxCell id="PACxMlugmtT-tu7Vrz_O-111" style="edgeStyle=orthogonalEdgeStyle;rounded=0;orthogonalLoop=1;jettySize=auto;html=1;exitX=1;exitY=0.5;exitDx=0;exitDy=0;exitPerimeter=0;entryX=0;entryY=0.5;entryDx=0;entryDy=0;" edge="1" parent="1" source="PACxMlugmtT-tu7Vrz_O-88" target="PACxMlugmtT-tu7Vrz_O-7">
          <mxGeometry relative="1" as="geometry" />
        </mxCell>
        <mxCell id="PACxMlugmtT-tu7Vrz_O-118" style="edgeStyle=orthogonalEdgeStyle;rounded=0;orthogonalLoop=1;jettySize=auto;html=1;exitX=1;exitY=0.5;exitDx=0;exitDy=0;exitPerimeter=0;entryX=0;entryY=0.5;entryDx=0;entryDy=0;" edge="1" parent="1" source="PACxMlugmtT-tu7Vrz_O-88" target="PACxMlugmtT-tu7Vrz_O-8">
          <mxGeometry relative="1" as="geometry" />
        </mxCell>
        <mxCell id="PACxMlugmtT-tu7Vrz_O-88" value="Oracle /&lt;br&gt;MS SQL" style="shape=cylinder3;whiteSpace=wrap;html=1;boundedLbl=1;backgroundOutline=1;size=15;" vertex="1" parent="1">
          <mxGeometry x="-2170" y="210" width="60" height="80" as="geometry" />
        </mxCell>
        <mxCell id="PACxMlugmtT-tu7Vrz_O-105" value="R" style="edgeStyle=orthogonalEdgeStyle;rounded=0;orthogonalLoop=1;jettySize=auto;html=1;exitX=1;exitY=0.5;exitDx=0;exitDy=0;" edge="1" parent="1" source="PACxMlugmtT-tu7Vrz_O-37" target="PACxMlugmtT-tu7Vrz_O-72">
          <mxGeometry relative="1" as="geometry" />
        </mxCell>
        <mxCell id="PACxMlugmtT-tu7Vrz_O-163" value="PV adoption model" style="swimlane;html=1;fontStyle=0;childLayout=stackLayout;horizontal=1;startSize=26;fillColor=#e0e0e0;horizontalStack=0;resizeParent=1;resizeLast=0;collapsible=1;marginBottom=0;swimlaneFillColor=#ffffff;align=center;rounded=1;shadow=0;comic=0;labelBackgroundColor=none;strokeWidth=1;fontFamily=Verdana;fontSize=12;enumerate=0;" vertex="1" parent="1">
          <mxGeometry x="-2190" y="1180" width="160" height="40" as="geometry">
            <mxRectangle x="-1790" y="230" width="180" height="30" as="alternateBounds" />
          </mxGeometry>
        </mxCell>
        <mxCell id="PACxMlugmtT-tu7Vrz_O-166" value="HP adoption model" style="swimlane;html=1;fontStyle=0;childLayout=stackLayout;horizontal=1;startSize=26;fillColor=#e0e0e0;horizontalStack=0;resizeParent=1;resizeLast=0;collapsible=1;marginBottom=0;swimlaneFillColor=#ffffff;align=center;rounded=1;shadow=0;comic=0;labelBackgroundColor=none;strokeWidth=1;fontFamily=Verdana;fontSize=12;enumerate=0;" vertex="1" parent="1">
          <mxGeometry x="-2190" y="1290" width="160" height="40" as="geometry">
            <mxRectangle x="-1790" y="230" width="180" height="30" as="alternateBounds" />
          </mxGeometry>
        </mxCell>
        <mxCell id="PACxMlugmtT-tu7Vrz_O-167" value="EV adoption model" style="swimlane;html=1;fontStyle=0;childLayout=stackLayout;horizontal=1;startSize=26;fillColor=#e0e0e0;horizontalStack=0;resizeParent=1;resizeLast=0;collapsible=1;marginBottom=0;swimlaneFillColor=#ffffff;align=center;rounded=1;shadow=0;comic=0;labelBackgroundColor=none;strokeWidth=1;fontFamily=Verdana;fontSize=12;enumerate=0;" vertex="1" parent="1">
          <mxGeometry x="-2190" y="1235" width="160" height="40" as="geometry">
            <mxRectangle x="-1790" y="230" width="180" height="30" as="alternateBounds" />
          </mxGeometry>
        </mxCell>
        <mxCell id="PACxMlugmtT-tu7Vrz_O-212" value="json" style="edgeStyle=orthogonalEdgeStyle;rounded=0;orthogonalLoop=1;jettySize=auto;html=1;exitX=1;exitY=0.5;exitDx=0;exitDy=0;entryX=0;entryY=0.5;entryDx=0;entryDy=0;" edge="1" parent="1" source="PACxMlugmtT-tu7Vrz_O-169" target="PACxMlugmtT-tu7Vrz_O-186">
          <mxGeometry relative="1" as="geometry" />
        </mxCell>
        <mxCell id="PACxMlugmtT-tu7Vrz_O-227" style="edgeStyle=orthogonalEdgeStyle;rounded=0;orthogonalLoop=1;jettySize=auto;html=1;exitX=0.5;exitY=1;exitDx=0;exitDy=0;entryX=0;entryY=0.5;entryDx=0;entryDy=0;entryPerimeter=0;" edge="1" parent="1" source="PACxMlugmtT-tu7Vrz_O-169" target="PACxMlugmtT-tu7Vrz_O-174">
          <mxGeometry relative="1" as="geometry" />
        </mxCell>
        <mxCell id="PACxMlugmtT-tu7Vrz_O-179" style="edgeStyle=orthogonalEdgeStyle;rounded=0;orthogonalLoop=1;jettySize=auto;html=1;exitX=1;exitY=0.5;exitDx=0;exitDy=0;exitPerimeter=0;entryX=0;entryY=0.5;entryDx=0;entryDy=0;" edge="1" parent="1" source="PACxMlugmtT-tu7Vrz_O-172" target="PACxMlugmtT-tu7Vrz_O-177">
          <mxGeometry relative="1" as="geometry" />
        </mxCell>
        <mxCell id="PACxMlugmtT-tu7Vrz_O-180" style="edgeStyle=orthogonalEdgeStyle;rounded=0;orthogonalLoop=1;jettySize=auto;html=1;exitX=1;exitY=0.5;exitDx=0;exitDy=0;exitPerimeter=0;entryX=0;entryY=0.5;entryDx=0;entryDy=0;" edge="1" parent="1" source="PACxMlugmtT-tu7Vrz_O-172" target="PACxMlugmtT-tu7Vrz_O-169">
          <mxGeometry relative="1" as="geometry" />
        </mxCell>
        <mxCell id="PACxMlugmtT-tu7Vrz_O-181" style="edgeStyle=orthogonalEdgeStyle;rounded=0;orthogonalLoop=1;jettySize=auto;html=1;exitX=1;exitY=0.5;exitDx=0;exitDy=0;exitPerimeter=0;entryX=0;entryY=0.5;entryDx=0;entryDy=0;" edge="1" parent="1" source="PACxMlugmtT-tu7Vrz_O-172" target="PACxMlugmtT-tu7Vrz_O-178">
          <mxGeometry relative="1" as="geometry" />
        </mxCell>
        <mxCell id="PACxMlugmtT-tu7Vrz_O-209" style="edgeStyle=orthogonalEdgeStyle;rounded=0;orthogonalLoop=1;jettySize=auto;html=1;exitX=1;exitY=0.5;exitDx=0;exitDy=0;exitPerimeter=0;entryX=0;entryY=0.5;entryDx=0;entryDy=0;" edge="1" parent="1" source="PACxMlugmtT-tu7Vrz_O-172" target="PACxMlugmtT-tu7Vrz_O-208">
          <mxGeometry relative="1" as="geometry" />
        </mxCell>
        <mxCell id="PACxMlugmtT-tu7Vrz_O-172" value="Modeldata" style="shape=cylinder3;whiteSpace=wrap;html=1;boundedLbl=1;backgroundOutline=1;size=15;" vertex="1" parent="1">
          <mxGeometry x="-2210" y="960" width="60" height="80" as="geometry" />
        </mxCell>
        <mxCell id="PACxMlugmtT-tu7Vrz_O-245" style="edgeStyle=orthogonalEdgeStyle;rounded=0;orthogonalLoop=1;jettySize=auto;html=1;exitX=0.5;exitY=1;exitDx=0;exitDy=0;entryX=0.25;entryY=0;entryDx=0;entryDy=0;" edge="1" parent="1" target="PACxMlugmtT-tu7Vrz_O-208">
          <mxGeometry relative="1" as="geometry">
            <mxPoint x="-1990" y="790" as="sourcePoint" />
          </mxGeometry>
        </mxCell>
        <mxCell id="PACxMlugmtT-tu7Vrz_O-253" style="edgeStyle=orthogonalEdgeStyle;rounded=0;orthogonalLoop=1;jettySize=auto;html=1;exitX=1;exitY=0.5;exitDx=0;exitDy=0;exitPerimeter=0;entryX=0.5;entryY=1;entryDx=0;entryDy=0;" edge="1" parent="1" source="PACxMlugmtT-tu7Vrz_O-174" target="PACxMlugmtT-tu7Vrz_O-188">
          <mxGeometry relative="1" as="geometry" />
        </mxCell>
        <mxCell id="PACxMlugmtT-tu7Vrz_O-254" style="edgeStyle=orthogonalEdgeStyle;rounded=0;orthogonalLoop=1;jettySize=auto;html=1;exitX=1;exitY=0.5;exitDx=0;exitDy=0;exitPerimeter=0;entryX=0.5;entryY=1;entryDx=0;entryDy=0;" edge="1" parent="1" source="PACxMlugmtT-tu7Vrz_O-174" target="PACxMlugmtT-tu7Vrz_O-187">
          <mxGeometry relative="1" as="geometry" />
        </mxCell>
        <mxCell id="PACxMlugmtT-tu7Vrz_O-255" style="edgeStyle=orthogonalEdgeStyle;rounded=0;orthogonalLoop=1;jettySize=auto;html=1;exitX=1;exitY=0.5;exitDx=0;exitDy=0;exitPerimeter=0;entryX=0.5;entryY=1;entryDx=0;entryDy=0;" edge="1" parent="1" source="PACxMlugmtT-tu7Vrz_O-174" target="PACxMlugmtT-tu7Vrz_O-186">
          <mxGeometry relative="1" as="geometry" />
        </mxCell>
        <mxCell id="PACxMlugmtT-tu7Vrz_O-256" style="edgeStyle=orthogonalEdgeStyle;rounded=0;orthogonalLoop=1;jettySize=auto;html=1;exitX=1;exitY=0.5;exitDx=0;exitDy=0;exitPerimeter=0;entryX=0.5;entryY=1;entryDx=0;entryDy=0;" edge="1" parent="1" source="PACxMlugmtT-tu7Vrz_O-174" target="PACxMlugmtT-tu7Vrz_O-185">
          <mxGeometry relative="1" as="geometry" />
        </mxCell>
        <mxCell id="PACxMlugmtT-tu7Vrz_O-266" style="edgeStyle=orthogonalEdgeStyle;rounded=0;orthogonalLoop=1;jettySize=auto;html=1;exitX=1;exitY=0;exitDx=0;exitDy=52.5;exitPerimeter=0;entryX=0.25;entryY=1;entryDx=0;entryDy=0;" edge="1" parent="1" source="PACxMlugmtT-tu7Vrz_O-174" target="PACxMlugmtT-tu7Vrz_O-257">
          <mxGeometry relative="1" as="geometry" />
        </mxCell>
        <mxCell id="PACxMlugmtT-tu7Vrz_O-174" value="Techdist" style="shape=cylinder3;whiteSpace=wrap;html=1;boundedLbl=1;backgroundOutline=1;size=15;" vertex="1" parent="1">
          <mxGeometry x="-1860" y="1170" width="60" height="80" as="geometry" />
        </mxCell>
        <mxCell id="PACxMlugmtT-tu7Vrz_O-213" value="json" style="edgeStyle=orthogonalEdgeStyle;rounded=0;orthogonalLoop=1;jettySize=auto;html=1;exitX=1;exitY=0.5;exitDx=0;exitDy=0;entryX=0;entryY=0.5;entryDx=0;entryDy=0;" edge="1" parent="1" source="PACxMlugmtT-tu7Vrz_O-177" target="PACxMlugmtT-tu7Vrz_O-185">
          <mxGeometry relative="1" as="geometry" />
        </mxCell>
        <mxCell id="PACxMlugmtT-tu7Vrz_O-238" style="edgeStyle=orthogonalEdgeStyle;rounded=0;orthogonalLoop=1;jettySize=auto;html=1;exitX=0.5;exitY=1;exitDx=0;exitDy=0;entryX=0;entryY=0.5;entryDx=0;entryDy=0;entryPerimeter=0;" edge="1" parent="1" source="PACxMlugmtT-tu7Vrz_O-177" target="PACxMlugmtT-tu7Vrz_O-174">
          <mxGeometry relative="1" as="geometry" />
        </mxCell>
        <mxCell id="PACxMlugmtT-tu7Vrz_O-177" value="Technology Distribution" style="swimlane;html=1;fontStyle=0;childLayout=stackLayout;horizontal=1;startSize=26;fillColor=#f8cecc;horizontalStack=0;resizeParent=1;resizeLast=0;collapsible=1;marginBottom=0;swimlaneFillColor=#ffffff;align=center;rounded=1;shadow=0;comic=0;labelBackgroundColor=none;strokeWidth=1;fontFamily=Verdana;fontSize=12;enumerate=0;strokeColor=#b85450;" vertex="1" parent="1">
          <mxGeometry x="-2030" y="850" width="160" height="60" as="geometry">
            <mxRectangle x="-1790" y="230" width="180" height="30" as="alternateBounds" />
          </mxGeometry>
        </mxCell>
        <mxCell id="PACxMlugmtT-tu7Vrz_O-211" value="json" style="edgeStyle=orthogonalEdgeStyle;rounded=0;orthogonalLoop=1;jettySize=auto;html=1;exitX=1;exitY=0.5;exitDx=0;exitDy=0;entryX=0;entryY=0.5;entryDx=0;entryDy=0;" edge="1" parent="1" source="PACxMlugmtT-tu7Vrz_O-178" target="PACxMlugmtT-tu7Vrz_O-187">
          <mxGeometry relative="1" as="geometry" />
        </mxCell>
        <mxCell id="PACxMlugmtT-tu7Vrz_O-226" style="edgeStyle=orthogonalEdgeStyle;rounded=0;orthogonalLoop=1;jettySize=auto;html=1;exitX=0.5;exitY=1;exitDx=0;exitDy=0;entryX=0;entryY=0.5;entryDx=0;entryDy=0;entryPerimeter=0;" edge="1" parent="1" source="PACxMlugmtT-tu7Vrz_O-178" target="PACxMlugmtT-tu7Vrz_O-174">
          <mxGeometry relative="1" as="geometry" />
        </mxCell>
        <mxCell id="PACxMlugmtT-tu7Vrz_O-178" value="Technology Distribution" style="swimlane;html=1;fontStyle=0;childLayout=stackLayout;horizontal=1;startSize=26;fillColor=#f8cecc;horizontalStack=0;resizeParent=1;resizeLast=0;collapsible=1;marginBottom=0;swimlaneFillColor=#ffffff;align=center;rounded=1;shadow=0;comic=0;labelBackgroundColor=none;strokeWidth=1;fontFamily=Verdana;fontSize=12;enumerate=0;strokeColor=#b85450;" vertex="1" parent="1">
          <mxGeometry x="-2030" y="1010" width="160" height="60" as="geometry">
            <mxRectangle x="-1790" y="230" width="180" height="30" as="alternateBounds" />
          </mxGeometry>
        </mxCell>
        <mxCell id="PACxMlugmtT-tu7Vrz_O-194" style="edgeStyle=orthogonalEdgeStyle;rounded=0;orthogonalLoop=1;jettySize=auto;html=1;exitX=1;exitY=0.5;exitDx=0;exitDy=0;entryX=0;entryY=0.5;entryDx=0;entryDy=0;entryPerimeter=0;" edge="1" parent="1" source="PACxMlugmtT-tu7Vrz_O-185" target="PACxMlugmtT-tu7Vrz_O-193">
          <mxGeometry relative="1" as="geometry">
            <Array as="points">
              <mxPoint x="-1650" y="880" />
              <mxPoint x="-1650" y="1210" />
            </Array>
          </mxGeometry>
        </mxCell>
        <mxCell id="PACxMlugmtT-tu7Vrz_O-263" value="json" style="edgeStyle=orthogonalEdgeStyle;rounded=0;orthogonalLoop=1;jettySize=auto;html=1;exitX=1;exitY=0.5;exitDx=0;exitDy=0;entryX=0;entryY=0.5;entryDx=0;entryDy=0;" edge="1" parent="1" source="PACxMlugmtT-tu7Vrz_O-185" target="PACxMlugmtT-tu7Vrz_O-257">
          <mxGeometry relative="1" as="geometry" />
        </mxCell>
        <mxCell id="PACxMlugmtT-tu7Vrz_O-283" style="edgeStyle=orthogonalEdgeStyle;rounded=0;orthogonalLoop=1;jettySize=auto;html=1;exitX=0.75;exitY=0;exitDx=0;exitDy=0;entryX=0;entryY=0.5;entryDx=0;entryDy=0;" edge="1" parent="1" source="PACxMlugmtT-tu7Vrz_O-185" target="PACxMlugmtT-tu7Vrz_O-280">
          <mxGeometry relative="1" as="geometry" />
        </mxCell>
        <mxCell id="PACxMlugmtT-tu7Vrz_O-284" style="edgeStyle=orthogonalEdgeStyle;rounded=0;orthogonalLoop=1;jettySize=auto;html=1;exitX=0.75;exitY=0;exitDx=0;exitDy=0;entryX=0;entryY=0.5;entryDx=0;entryDy=0;" edge="1" parent="1" source="PACxMlugmtT-tu7Vrz_O-188" target="PACxMlugmtT-tu7Vrz_O-281">
          <mxGeometry relative="1" as="geometry" />
        </mxCell>
        <object label="loadflow" id="PACxMlugmtT-tu7Vrz_O-185">
          <mxCell style="swimlane;html=1;fontStyle=0;childLayout=stackLayout;horizontal=1;startSize=26;fillColor=#f8cecc;horizontalStack=0;resizeParent=1;resizeLast=0;collapsible=1;marginBottom=0;swimlaneFillColor=#ffffff;align=center;rounded=1;shadow=0;comic=0;labelBackgroundColor=none;strokeWidth=1;fontFamily=Verdana;fontSize=12;enumerate=0;strokeColor=#b85450;" vertex="1" parent="1">
            <mxGeometry x="-1790" y="850" width="160" height="60" as="geometry">
              <mxRectangle x="-1790" y="230" width="180" height="30" as="alternateBounds" />
            </mxGeometry>
          </mxCell>
        </object>
        <mxCell id="PACxMlugmtT-tu7Vrz_O-196" style="edgeStyle=orthogonalEdgeStyle;rounded=0;orthogonalLoop=1;jettySize=auto;html=1;exitX=1;exitY=0.5;exitDx=0;exitDy=0;entryX=0;entryY=0.5;entryDx=0;entryDy=0;entryPerimeter=0;" edge="1" parent="1" source="PACxMlugmtT-tu7Vrz_O-186" target="PACxMlugmtT-tu7Vrz_O-193">
          <mxGeometry relative="1" as="geometry">
            <Array as="points">
              <mxPoint x="-1650" y="960" />
              <mxPoint x="-1650" y="1210" />
            </Array>
          </mxGeometry>
        </mxCell>
        <mxCell id="PACxMlugmtT-tu7Vrz_O-261" style="edgeStyle=orthogonalEdgeStyle;rounded=0;orthogonalLoop=1;jettySize=auto;html=1;exitX=1;exitY=0.5;exitDx=0;exitDy=0;entryX=0;entryY=0.5;entryDx=0;entryDy=0;" edge="1" parent="1" source="PACxMlugmtT-tu7Vrz_O-186" target="PACxMlugmtT-tu7Vrz_O-257">
          <mxGeometry relative="1" as="geometry" />
        </mxCell>
        <mxCell id="PACxMlugmtT-tu7Vrz_O-186" value="loadflow" style="swimlane;html=1;fontStyle=0;childLayout=stackLayout;horizontal=1;startSize=26;fillColor=#f8cecc;horizontalStack=0;resizeParent=1;resizeLast=0;collapsible=1;marginBottom=0;swimlaneFillColor=#ffffff;align=center;rounded=1;shadow=0;comic=0;labelBackgroundColor=none;strokeWidth=1;fontFamily=Verdana;fontSize=12;enumerate=0;strokeColor=#b85450;" vertex="1" parent="1">
          <mxGeometry x="-1790" y="930" width="160" height="60" as="geometry">
            <mxRectangle x="-1790" y="230" width="180" height="30" as="alternateBounds" />
          </mxGeometry>
        </mxCell>
        <mxCell id="PACxMlugmtT-tu7Vrz_O-198" style="edgeStyle=orthogonalEdgeStyle;rounded=0;orthogonalLoop=1;jettySize=auto;html=1;exitX=1;exitY=0.5;exitDx=0;exitDy=0;entryX=0;entryY=0.5;entryDx=0;entryDy=0;entryPerimeter=0;" edge="1" parent="1" source="PACxMlugmtT-tu7Vrz_O-187" target="PACxMlugmtT-tu7Vrz_O-193">
          <mxGeometry relative="1" as="geometry">
            <Array as="points">
              <mxPoint x="-1650" y="1040" />
              <mxPoint x="-1650" y="1210" />
            </Array>
          </mxGeometry>
        </mxCell>
        <mxCell id="PACxMlugmtT-tu7Vrz_O-258" style="edgeStyle=orthogonalEdgeStyle;rounded=0;orthogonalLoop=1;jettySize=auto;html=1;exitX=1;exitY=0.5;exitDx=0;exitDy=0;entryX=0;entryY=0.5;entryDx=0;entryDy=0;" edge="1" parent="1" source="PACxMlugmtT-tu7Vrz_O-187" target="PACxMlugmtT-tu7Vrz_O-257">
          <mxGeometry relative="1" as="geometry" />
        </mxCell>
        <mxCell id="PACxMlugmtT-tu7Vrz_O-187" value="loadflow" style="swimlane;html=1;fontStyle=0;childLayout=stackLayout;horizontal=1;startSize=26;fillColor=#f8cecc;horizontalStack=0;resizeParent=1;resizeLast=0;collapsible=1;marginBottom=0;swimlaneFillColor=#ffffff;align=center;rounded=1;shadow=0;comic=0;labelBackgroundColor=none;strokeWidth=1;fontFamily=Verdana;fontSize=12;enumerate=0;strokeColor=#b85450;" vertex="1" parent="1">
          <mxGeometry x="-1790" y="1010" width="160" height="60" as="geometry">
            <mxRectangle x="-1790" y="230" width="180" height="30" as="alternateBounds" />
          </mxGeometry>
        </mxCell>
        <mxCell id="PACxMlugmtT-tu7Vrz_O-200" style="edgeStyle=orthogonalEdgeStyle;rounded=0;orthogonalLoop=1;jettySize=auto;html=1;exitX=1;exitY=0.5;exitDx=0;exitDy=0;entryX=0;entryY=0.5;entryDx=0;entryDy=0;entryPerimeter=0;" edge="1" parent="1" source="PACxMlugmtT-tu7Vrz_O-188" target="PACxMlugmtT-tu7Vrz_O-193">
          <mxGeometry relative="1" as="geometry">
            <Array as="points">
              <mxPoint x="-1650" y="1120" />
              <mxPoint x="-1650" y="1210" />
            </Array>
          </mxGeometry>
        </mxCell>
        <mxCell id="PACxMlugmtT-tu7Vrz_O-260" value="json" style="edgeStyle=orthogonalEdgeStyle;rounded=0;orthogonalLoop=1;jettySize=auto;html=1;exitX=1;exitY=0.5;exitDx=0;exitDy=0;entryX=0;entryY=0.5;entryDx=0;entryDy=0;" edge="1" parent="1" source="PACxMlugmtT-tu7Vrz_O-188" target="PACxMlugmtT-tu7Vrz_O-257">
          <mxGeometry relative="1" as="geometry" />
        </mxCell>
        <mxCell id="PACxMlugmtT-tu7Vrz_O-188" value="loadflow" style="swimlane;html=1;fontStyle=0;childLayout=stackLayout;horizontal=1;startSize=26;fillColor=#f8cecc;horizontalStack=0;resizeParent=1;resizeLast=0;collapsible=1;marginBottom=0;swimlaneFillColor=#ffffff;align=center;rounded=1;shadow=0;comic=0;labelBackgroundColor=none;strokeWidth=1;fontFamily=Verdana;fontSize=12;enumerate=0;strokeColor=#b85450;" vertex="1" parent="1">
          <mxGeometry x="-1790" y="1090" width="160" height="60" as="geometry">
            <mxRectangle x="-1790" y="230" width="180" height="30" as="alternateBounds" />
          </mxGeometry>
        </mxCell>
        <mxCell id="PACxMlugmtT-tu7Vrz_O-264" style="edgeStyle=orthogonalEdgeStyle;rounded=0;orthogonalLoop=1;jettySize=auto;html=1;exitX=0.5;exitY=0;exitDx=0;exitDy=0;exitPerimeter=0;" edge="1" parent="1" source="PACxMlugmtT-tu7Vrz_O-193">
          <mxGeometry relative="1" as="geometry">
            <mxPoint x="-1480" y="1030" as="targetPoint" />
          </mxGeometry>
        </mxCell>
        <mxCell id="PACxMlugmtT-tu7Vrz_O-193" value="Results" style="shape=cylinder3;whiteSpace=wrap;html=1;boundedLbl=1;backgroundOutline=1;size=15;" vertex="1" parent="1">
          <mxGeometry x="-1510" y="1170" width="60" height="80" as="geometry" />
        </mxCell>
        <mxCell id="PACxMlugmtT-tu7Vrz_O-210" value="json" style="edgeStyle=orthogonalEdgeStyle;rounded=0;orthogonalLoop=1;jettySize=auto;html=1;exitX=1;exitY=0.5;exitDx=0;exitDy=0;" edge="1" parent="1" source="PACxMlugmtT-tu7Vrz_O-208">
          <mxGeometry relative="1" as="geometry">
            <mxPoint x="-1789.9999999999995" y="1119.818181818182" as="targetPoint" />
          </mxGeometry>
        </mxCell>
        <mxCell id="PACxMlugmtT-tu7Vrz_O-224" style="edgeStyle=orthogonalEdgeStyle;rounded=0;orthogonalLoop=1;jettySize=auto;html=1;exitX=0.5;exitY=1;exitDx=0;exitDy=0;entryX=0;entryY=0.5;entryDx=0;entryDy=0;entryPerimeter=0;" edge="1" parent="1" source="PACxMlugmtT-tu7Vrz_O-208" target="PACxMlugmtT-tu7Vrz_O-174">
          <mxGeometry relative="1" as="geometry" />
        </mxCell>
        <mxCell id="PACxMlugmtT-tu7Vrz_O-277" style="edgeStyle=orthogonalEdgeStyle;rounded=0;orthogonalLoop=1;jettySize=auto;html=1;exitX=0.5;exitY=1;exitDx=0;exitDy=0;entryX=1;entryY=0.5;entryDx=0;entryDy=0;" edge="1" parent="1" source="PACxMlugmtT-tu7Vrz_O-208" target="PACxMlugmtT-tu7Vrz_O-163">
          <mxGeometry relative="1" as="geometry">
            <Array as="points">
              <mxPoint x="-1950" y="1200" />
            </Array>
          </mxGeometry>
        </mxCell>
        <mxCell id="PACxMlugmtT-tu7Vrz_O-278" style="edgeStyle=orthogonalEdgeStyle;rounded=0;orthogonalLoop=1;jettySize=auto;html=1;exitX=0.5;exitY=1;exitDx=0;exitDy=0;entryX=1;entryY=0.5;entryDx=0;entryDy=0;" edge="1" parent="1" source="PACxMlugmtT-tu7Vrz_O-208" target="PACxMlugmtT-tu7Vrz_O-167">
          <mxGeometry relative="1" as="geometry" />
        </mxCell>
        <mxCell id="PACxMlugmtT-tu7Vrz_O-279" style="edgeStyle=orthogonalEdgeStyle;rounded=0;orthogonalLoop=1;jettySize=auto;html=1;exitX=0.5;exitY=1;exitDx=0;exitDy=0;entryX=1;entryY=0.5;entryDx=0;entryDy=0;" edge="1" parent="1" source="PACxMlugmtT-tu7Vrz_O-208" target="PACxMlugmtT-tu7Vrz_O-166">
          <mxGeometry relative="1" as="geometry" />
        </mxCell>
        <mxCell id="PACxMlugmtT-tu7Vrz_O-286" style="edgeStyle=orthogonalEdgeStyle;rounded=0;orthogonalLoop=1;jettySize=auto;html=1;exitX=0.5;exitY=1;exitDx=0;exitDy=0;entryX=1;entryY=0.5;entryDx=0;entryDy=0;" edge="1" parent="1" source="PACxMlugmtT-tu7Vrz_O-208" target="PACxMlugmtT-tu7Vrz_O-285">
          <mxGeometry relative="1" as="geometry" />
        </mxCell>
        <mxCell id="PACxMlugmtT-tu7Vrz_O-208" value="Technology Distribution" style="swimlane;html=1;fontStyle=0;childLayout=stackLayout;horizontal=1;startSize=26;fillColor=#f8cecc;horizontalStack=0;resizeParent=1;resizeLast=0;collapsible=1;marginBottom=0;swimlaneFillColor=#ffffff;align=center;rounded=1;shadow=0;comic=0;labelBackgroundColor=none;strokeWidth=1;fontFamily=Verdana;fontSize=12;enumerate=0;strokeColor=#b85450;" vertex="1" parent="1">
          <mxGeometry x="-2030" y="1090" width="160" height="60" as="geometry">
            <mxRectangle x="-1790" y="230" width="180" height="30" as="alternateBounds" />
          </mxGeometry>
        </mxCell>
        <mxCell id="PACxMlugmtT-tu7Vrz_O-169" value="Technology Distribution" style="swimlane;html=1;fontStyle=0;childLayout=stackLayout;horizontal=1;startSize=26;fillColor=#f8cecc;horizontalStack=0;resizeParent=1;resizeLast=0;collapsible=1;marginBottom=0;swimlaneFillColor=#ffffff;align=center;rounded=1;shadow=0;comic=0;labelBackgroundColor=none;strokeWidth=1;fontFamily=Verdana;fontSize=12;enumerate=0;strokeColor=#b85450;" vertex="1" parent="1">
          <mxGeometry x="-2030" y="930" width="160" height="60" as="geometry">
            <mxRectangle x="-2030" y="930" width="180" height="30" as="alternateBounds" />
          </mxGeometry>
        </mxCell>
        <mxCell id="PACxMlugmtT-tu7Vrz_O-257" value="reporting" style="swimlane;html=1;fontStyle=0;childLayout=stackLayout;horizontal=1;startSize=26;fillColor=#e0e0e0;horizontalStack=0;resizeParent=1;resizeLast=0;collapsible=1;marginBottom=0;swimlaneFillColor=#ffffff;align=center;rounded=1;shadow=0;comic=0;labelBackgroundColor=none;strokeWidth=1;fontFamily=Verdana;fontSize=12;enumerate=0;" vertex="1" parent="1">
          <mxGeometry x="-1570" y="970" width="160" height="60" as="geometry">
            <mxRectangle x="-1790" y="230" width="180" height="30" as="alternateBounds" />
          </mxGeometry>
        </mxCell>
        <mxCell id="PACxMlugmtT-tu7Vrz_O-273" value="Experiment" style="swimlane;html=1;fontStyle=0;childLayout=stackLayout;horizontal=1;startSize=26;fillColor=#e0e0e0;horizontalStack=0;resizeParent=1;resizeLast=0;collapsible=1;marginBottom=0;swimlaneFillColor=#ffffff;align=center;rounded=1;shadow=0;comic=0;labelBackgroundColor=none;strokeWidth=1;fontFamily=Verdana;fontSize=12" vertex="1" parent="1">
          <mxGeometry x="-2070" y="690" width="160" height="110" as="geometry" />
        </mxCell>
        <mxCell id="PACxMlugmtT-tu7Vrz_O-274" value="Add loadflow parameters" style="text;html=1;strokeColor=none;fillColor=none;spacingLeft=4;spacingRight=4;whiteSpace=wrap;overflow=hidden;rotatable=0;points=[[0,0.5],[1,0.5]];portConstraint=eastwest;" vertex="1" parent="PACxMlugmtT-tu7Vrz_O-273">
          <mxGeometry y="26" width="160" height="26" as="geometry" />
        </mxCell>
        <mxCell id="PACxMlugmtT-tu7Vrz_O-275" value="Add techdist parameters" style="text;html=1;strokeColor=none;fillColor=none;spacingLeft=4;spacingRight=4;whiteSpace=wrap;overflow=hidden;rotatable=0;points=[[0,0.5],[1,0.5]];portConstraint=eastwest;" vertex="1" parent="PACxMlugmtT-tu7Vrz_O-273">
          <mxGeometry y="52" width="160" height="26" as="geometry" />
        </mxCell>
        <mxCell id="PACxMlugmtT-tu7Vrz_O-276" value="Add scenario" style="text;html=1;strokeColor=none;fillColor=none;spacingLeft=4;spacingRight=4;whiteSpace=wrap;overflow=hidden;rotatable=0;points=[[0,0.5],[1,0.5]];portConstraint=eastwest;" vertex="1" parent="PACxMlugmtT-tu7Vrz_O-273">
          <mxGeometry y="78" width="160" height="26" as="geometry" />
        </mxCell>
        <mxCell id="PACxMlugmtT-tu7Vrz_O-280" value="Load flow model B" style="swimlane;html=1;fontStyle=0;childLayout=stackLayout;horizontal=1;startSize=26;fillColor=#e0e0e0;horizontalStack=0;resizeParent=1;resizeLast=0;collapsible=1;marginBottom=0;swimlaneFillColor=#ffffff;align=center;rounded=1;shadow=0;comic=0;labelBackgroundColor=none;strokeWidth=1;fontFamily=Verdana;fontSize=12;enumerate=0;" vertex="1" parent="1">
          <mxGeometry x="-1610" y="770" width="160" height="40" as="geometry">
            <mxRectangle x="-1790" y="230" width="180" height="30" as="alternateBounds" />
          </mxGeometry>
        </mxCell>
        <mxCell id="PACxMlugmtT-tu7Vrz_O-281" value="Load flow model A" style="swimlane;html=1;fontStyle=0;childLayout=stackLayout;horizontal=1;startSize=26;fillColor=#e0e0e0;horizontalStack=0;resizeParent=1;resizeLast=0;collapsible=1;marginBottom=0;swimlaneFillColor=#ffffff;align=center;rounded=1;shadow=0;comic=0;labelBackgroundColor=none;strokeWidth=1;fontFamily=Verdana;fontSize=12;enumerate=0;" vertex="1" parent="1">
          <mxGeometry x="-1610" y="720" width="160" height="40" as="geometry">
            <mxRectangle x="-1790" y="230" width="180" height="30" as="alternateBounds" />
          </mxGeometry>
        </mxCell>
        <mxCell id="PACxMlugmtT-tu7Vrz_O-285" value="Tech adoption model" style="swimlane;html=1;fontStyle=0;childLayout=stackLayout;horizontal=1;startSize=26;fillColor=#e0e0e0;horizontalStack=0;resizeParent=1;resizeLast=0;collapsible=1;marginBottom=0;swimlaneFillColor=#ffffff;align=center;rounded=1;shadow=0;comic=0;labelBackgroundColor=none;strokeWidth=1;fontFamily=Verdana;fontSize=12;enumerate=0;" vertex="1" parent="1">
          <mxGeometry x="-2190" y="1340" width="160" height="40" as="geometry">
            <mxRectangle x="-1790" y="230" width="180" height="30" as="alternateBounds" />
          </mxGeometry>
        </mxCell>
        <mxCell id="PACxMlugmtT-tu7Vrz_O-288" value="CLI" style="edgeStyle=orthogonalEdgeStyle;rounded=0;orthogonalLoop=1;jettySize=auto;html=1;entryX=0;entryY=0.5;entryDx=0;entryDy=0;" edge="1" parent="1" source="PACxMlugmtT-tu7Vrz_O-287" target="PACxMlugmtT-tu7Vrz_O-275">
          <mxGeometry relative="1" as="geometry" />
        </mxCell>
        <mxCell id="PACxMlugmtT-tu7Vrz_O-287" value="Actor" style="shape=umlActor;verticalLabelPosition=bottom;verticalAlign=top;html=1;outlineConnect=0;" vertex="1" parent="1">
          <mxGeometry x="-2195" y="725" width="30" height="60" as="geometry" />
        </mxCell>
      </root>
    </mxGraphModel>
  </diagram>
</mxfile>
